<svg xmlns="http://www.w3.org/2000/svg" width="24" height="24" id="plug"><path d="M9.1 17h-.2C5.1 17 2 13.9 2 10.1V6c0-.6.4-1 1-1h12c.6 0 1 .4 1 1v4.1c0 3.8-3.1 6.9-6.9 6.9zM4 7v3.1C4 12.8 6.2 15 8.9 15H9c2.7 0 4.9-2.2 4.9-4.9V7H4z"></path><path d="M6 7c-.6 0-1-.4-1-1V1c0-.6.4-1 1-1s1 .4 1 1v5c0 .6-.4 1-1 1zm6 0c-.6 0-1-.4-1-1V1c0-.6.4-1 1-1s1 .4 1 1v5c0 .6-.4 1-1 1zm3 17c-5.5 0-7-5.2-7.1-8 0-.6.4-1 1-1 .5 0 1 .4 1 1 0 .2.1 6 5.1 6 4.9 0 5-5.8 5-6V9c0-.6.4-1 1-1s1 .4 1 1v7c0 2.8-1.5 8-7 8z"></path></svg>